<?xml version="1.0" encoding="UTF-8" standalone="yes" ?>
<!DOCTYPE svg PUBLIC "-//W3C//DTD SVG 1.1//EN" 
  "http://www.w3.org/Graphics/SVG/1.1/DTD/svg11.dtd">
<svg width="22cm" height="14cm" viewBox="0 0 1150 720" stroke="white" version="1.1"
	xmlns="http://www.w3.org/2000/svg">
	<!--Gramilla-->
	<rect x="0" y="0" width="1150" height="720" fill="green" />
	<!--Medio Campo-->
	<path d="M 575,20 L 50,20 50,700 575,700 575,20 x" stroke="white" stroke-width="2" fill="green" />
	<!--Porteria-->
	<path d="M 50,324.4 L 40,324.4 40, 396.6 50 396.6 z" stroke="white" stroke-width="2" fill-opacity="0" />
	<!--Area pequeña-->
	<path d="M 50,269.4 L 105,269.4 105,451.6 50 451.6 z" stroke="white" stroke-width="2" fill-opacity="0" />
	<!--Area 1650-->
	<path d="M 50,159.4 L 215,159.4 215,561.6 50 561.6 z" stroke="white" stroke-width="2" fill-opacity="0" />
	<!--Semicirculo-->
	<path d="M 215,286.875 A 91.5,91.5 0 0,1 215,433.125 z" stroke="white" stroke-width="2" fill="green" />
	<!--Esquinas-->
	<path d="M 50,30 A 10,10 0 0,0 60,20 L 50,20 z" stroke="white" stroke-width="2" fill-opacity="0" />
	<path d="M 60,700 A 10,10 0 0,0 50,690 L 50,700 z" stroke="white" stroke-width="2" fill-opacity="0" />
	<!--Circulo de Penalti-->
	<circle cx="160" cy="360" r="2" stroke="white" fill="white" />
	<text x="600" y="250" fill="white" font-family="Verdana" font-size="50">Every goal scored 
	<tspan x="600" y="300">in the world</tspan>
	<tspan x="600" y="350">we have it here</tspan> 
	<tspan x="600" y="400">#area1650</tspan></text>
	<a xlink:href="http://www.area1650.net">
		<text x="600" y="500" fill="white" font-family="Verdana" font-size="60">Click to Enter</text>
	</a>	
</svg>